<svg xmlns="http://www.w3.org/2000/svg" viewBox="0 0 143.15 103.5"><defs><style>.cls-1{fill:#00a1ff;}.cls-2{fill:#00c4d6;}.cls-3{fill:#006eff;}</style></defs><g id="Layer_2" data-name="Layer 2"><g id="Layer_1-2" data-name="Layer 1"><path class="cls-1" d="M133.6,47.1A32.68,32.68,0,0,0,89,44.8a109.65,109.65,0,0,0-8.9,8C78.3,54.4,28.4,103,28.4,103a91,91,0,0,0,9.5.5h62.9c4.8,0,8,0,11.4-.2a32.74,32.74,0,0,0,21-9.2,33.2,33.2,0,0,0,.4-47M124,84.8c-2.6,2.5-7.1,5.4-14.5,5.7-3.5.1-7.5.1-9.4.1H60C74.5,76.5,87.3,64.1,88.7,62.7s4.3-4.1,6.9-6.4c5.7-5,10.7-6.1,14.3-6a21.21,21.21,0,0,1,14.4,6,20.1,20.1,0,0,1-.3,28.5"/><path class="cls-2" d="M53,44A32.53,32.53,0,0,0,9.5,47.1a33.2,33.2,0,0,0,.5,47,32.65,32.65,0,0,0,18.5,9L41.3,90.6c-2.1,0-5-.1-7.7-.1-7.5-.2-12-3.1-14.5-5.7a20.05,20.05,0,0,1,14-34.5c3.5,0,8.3,1,13.7,5.5,2.6,2.1,8.3,7.2,10.8,9.4a.3.3,0,0,0,.4,0l8.9-8.7c.1-.1.1-.4,0-.4C62.6,52,56.6,46.7,53,44"/><path class="cls-3" d="M113.5,29.7a44.56,44.56,0,0,0-86,7.8,33.13,33.13,0,0,1,5.5-.4,29.65,29.65,0,0,1,7.5.9h.1A31.48,31.48,0,0,1,100,31.3a.52.52,0,0,0,.4.2A39.7,39.7,0,0,1,113,30.2c.4.1.5-.1.5-.5"/></g></g></svg>